<mxfile host="app.diagrams.net" modified="2022-09-05T09:13:22.010Z" agent="5.0 (Windows)" etag="MLd4Zl6XVWqpJhH9HVtb" version="20.2.8" type="github">
  <diagram id="C5RBs43oDa-KdzZeNtuy" name="Page-1">
    <mxGraphModel dx="1038" dy="536" grid="1" gridSize="10" guides="1" tooltips="1" connect="1" arrows="1" fold="1" page="1" pageScale="1" pageWidth="827" pageHeight="1169" math="0" shadow="0">
      <root>
        <mxCell id="WIyWlLk6GJQsqaUBKTNV-0" />
        <mxCell id="WIyWlLk6GJQsqaUBKTNV-1" parent="WIyWlLk6GJQsqaUBKTNV-0" />
        <mxCell id="ZwktRVXnsGHy5GNJE_Rt-5" value="" style="edgeStyle=orthogonalEdgeStyle;rounded=0;orthogonalLoop=1;jettySize=auto;html=1;" edge="1" parent="WIyWlLk6GJQsqaUBKTNV-1" source="ZwktRVXnsGHy5GNJE_Rt-3" target="ZwktRVXnsGHy5GNJE_Rt-4">
          <mxGeometry relative="1" as="geometry" />
        </mxCell>
        <mxCell id="ZwktRVXnsGHy5GNJE_Rt-3" value="程序入口fun" style="rounded=1;whiteSpace=wrap;html=1;" vertex="1" parent="WIyWlLk6GJQsqaUBKTNV-1">
          <mxGeometry x="40" y="180" width="120" height="60" as="geometry" />
        </mxCell>
        <mxCell id="ZwktRVXnsGHy5GNJE_Rt-7" value="" style="edgeStyle=orthogonalEdgeStyle;rounded=0;orthogonalLoop=1;jettySize=auto;html=1;" edge="1" parent="WIyWlLk6GJQsqaUBKTNV-1" source="ZwktRVXnsGHy5GNJE_Rt-4" target="ZwktRVXnsGHy5GNJE_Rt-6">
          <mxGeometry relative="1" as="geometry" />
        </mxCell>
        <mxCell id="ZwktRVXnsGHy5GNJE_Rt-19" value="" style="edgeStyle=orthogonalEdgeStyle;rounded=0;orthogonalLoop=1;jettySize=auto;html=1;" edge="1" parent="WIyWlLk6GJQsqaUBKTNV-1" source="ZwktRVXnsGHy5GNJE_Rt-4" target="ZwktRVXnsGHy5GNJE_Rt-18">
          <mxGeometry relative="1" as="geometry" />
        </mxCell>
        <mxCell id="ZwktRVXnsGHy5GNJE_Rt-4" value="read方法读取文件内容到集合" style="whiteSpace=wrap;html=1;rounded=1;" vertex="1" parent="WIyWlLk6GJQsqaUBKTNV-1">
          <mxGeometry x="240" y="180" width="120" height="60" as="geometry" />
        </mxCell>
        <mxCell id="ZwktRVXnsGHy5GNJE_Rt-9" value="" style="edgeStyle=orthogonalEdgeStyle;rounded=0;orthogonalLoop=1;jettySize=auto;html=1;" edge="1" parent="WIyWlLk6GJQsqaUBKTNV-1" source="ZwktRVXnsGHy5GNJE_Rt-6" target="ZwktRVXnsGHy5GNJE_Rt-8">
          <mxGeometry relative="1" as="geometry" />
        </mxCell>
        <mxCell id="ZwktRVXnsGHy5GNJE_Rt-6" value="排序集合" style="whiteSpace=wrap;html=1;rounded=1;" vertex="1" parent="WIyWlLk6GJQsqaUBKTNV-1">
          <mxGeometry x="440" y="180" width="120" height="60" as="geometry" />
        </mxCell>
        <mxCell id="ZwktRVXnsGHy5GNJE_Rt-11" value="" style="edgeStyle=orthogonalEdgeStyle;rounded=0;orthogonalLoop=1;jettySize=auto;html=1;" edge="1" parent="WIyWlLk6GJQsqaUBKTNV-1" source="ZwktRVXnsGHy5GNJE_Rt-8" target="ZwktRVXnsGHy5GNJE_Rt-10">
          <mxGeometry relative="1" as="geometry" />
        </mxCell>
        <mxCell id="ZwktRVXnsGHy5GNJE_Rt-14" value="" style="edgeStyle=orthogonalEdgeStyle;rounded=0;orthogonalLoop=1;jettySize=auto;html=1;" edge="1" parent="WIyWlLk6GJQsqaUBKTNV-1" source="ZwktRVXnsGHy5GNJE_Rt-8" target="ZwktRVXnsGHy5GNJE_Rt-13">
          <mxGeometry relative="1" as="geometry" />
        </mxCell>
        <mxCell id="ZwktRVXnsGHy5GNJE_Rt-8" value="check" style="rhombus;whiteSpace=wrap;html=1;rounded=1;" vertex="1" parent="WIyWlLk6GJQsqaUBKTNV-1">
          <mxGeometry x="660" y="170" width="80" height="80" as="geometry" />
        </mxCell>
        <mxCell id="ZwktRVXnsGHy5GNJE_Rt-21" value="" style="edgeStyle=orthogonalEdgeStyle;rounded=0;orthogonalLoop=1;jettySize=auto;html=1;" edge="1" parent="WIyWlLk6GJQsqaUBKTNV-1" source="ZwktRVXnsGHy5GNJE_Rt-10" target="ZwktRVXnsGHy5GNJE_Rt-20">
          <mxGeometry relative="1" as="geometry" />
        </mxCell>
        <mxCell id="ZwktRVXnsGHy5GNJE_Rt-10" value="把数据写入文件" style="whiteSpace=wrap;html=1;rounded=1;" vertex="1" parent="WIyWlLk6GJQsqaUBKTNV-1">
          <mxGeometry x="827" y="180" width="120" height="60" as="geometry" />
        </mxCell>
        <mxCell id="ZwktRVXnsGHy5GNJE_Rt-12" value="true" style="text;html=1;strokeColor=none;fillColor=none;align=center;verticalAlign=middle;whiteSpace=wrap;rounded=0;" vertex="1" parent="WIyWlLk6GJQsqaUBKTNV-1">
          <mxGeometry x="750" y="180" width="60" height="30" as="geometry" />
        </mxCell>
        <mxCell id="ZwktRVXnsGHy5GNJE_Rt-16" style="edgeStyle=orthogonalEdgeStyle;rounded=0;orthogonalLoop=1;jettySize=auto;html=1;entryX=0.5;entryY=1;entryDx=0;entryDy=0;" edge="1" parent="WIyWlLk6GJQsqaUBKTNV-1" source="ZwktRVXnsGHy5GNJE_Rt-13" target="ZwktRVXnsGHy5GNJE_Rt-10">
          <mxGeometry relative="1" as="geometry" />
        </mxCell>
        <mxCell id="ZwktRVXnsGHy5GNJE_Rt-13" value="使用TreeSet排序去重" style="whiteSpace=wrap;html=1;rounded=1;" vertex="1" parent="WIyWlLk6GJQsqaUBKTNV-1">
          <mxGeometry x="640" y="310" width="120" height="60" as="geometry" />
        </mxCell>
        <mxCell id="ZwktRVXnsGHy5GNJE_Rt-15" value="false" style="text;html=1;strokeColor=none;fillColor=none;align=center;verticalAlign=middle;whiteSpace=wrap;rounded=0;" vertex="1" parent="WIyWlLk6GJQsqaUBKTNV-1">
          <mxGeometry x="640" y="270" width="60" height="30" as="geometry" />
        </mxCell>
        <mxCell id="ZwktRVXnsGHy5GNJE_Rt-18" value="关闭输入流" style="whiteSpace=wrap;html=1;rounded=1;" vertex="1" parent="WIyWlLk6GJQsqaUBKTNV-1">
          <mxGeometry x="240" y="310" width="120" height="60" as="geometry" />
        </mxCell>
        <mxCell id="ZwktRVXnsGHy5GNJE_Rt-20" value="关闭输出流" style="whiteSpace=wrap;html=1;rounded=1;" vertex="1" parent="WIyWlLk6GJQsqaUBKTNV-1">
          <mxGeometry x="1027" y="180" width="120" height="60" as="geometry" />
        </mxCell>
      </root>
    </mxGraphModel>
  </diagram>
</mxfile>
